<?xml version="1.0" encoding="utf-8"?>
<!-- Generator: Adobe Illustrator 15.1.0, SVG Export Plug-In . SVG Version: 6.00 Build 0)  -->
<!DOCTYPE svg PUBLIC "-//W3C//DTD SVG 1.1//EN" "http://www.w3.org/Graphics/SVG/1.1/DTD/svg11.dtd">
<svg version="1.1" id="Layer_1" xmlns="http://www.w3.org/2000/svg" xmlns:xlink="http://www.w3.org/1999/xlink" x="0px" y="0px"
	 width="161.5px" height="53.5px" viewBox="0 0 161.5 53.5" enable-background="new 0 0 161.5 53.5" xml:space="preserve">
<g>
	<path fill="#FFFFFF" d="M52.291,14.648v21.521l0.411,4.314h-5.239l-0.359-3.031h-0.206c-1.746,2.568-4.52,3.75-7.447,3.75
		c-5.65,0-8.475-2.979-8.475-9.04V14.648h6.112v16.385c0,3.133,0.565,5.444,4.006,5.444c2.773,0,5.085-2.465,5.085-4.931V14.648
		H52.291z"/>
</g>
<g>
	<path fill="#FFFFFF" d="M15.593,6.401c5.804,0,11.095,1.746,11.095,8.578c0,3.39-1.952,5.752-4.726,7.191
		c3.853,0.976,6.472,3.647,6.472,8.167c0,6.678-4.623,10.221-13.149,10.221H4.037V6.401H15.593z M10.303,20.423h3.801
		c4.417,0,6.215-2.055,6.215-4.776c0-3.698-2.517-4.52-5.855-4.52h-4.161V20.423z M10.303,35.729h4.828
		c5.034,0,6.677-2.312,6.677-5.445c0-3.441-2.363-5.291-6.42-5.291h-5.085V35.729z"/>
</g>
<g display="none">
	<path display="inline" fill="#15222A" d="M148.207,89.502h-11.901V15.398c0-8.001,1.801-18.201,17.302-18.201
		c4.4,0,10.5,1.601,13.9,3.5l-2.9,8.001c-2.9-1.5-6.699-2.5-9.5-2.5c-5,0-6.9,2.8-6.9,8.3v3.563h9.984v9.469h-9.984V89.502z"/>
</g>
<g>
	<path fill="#FFFFFF" d="M62.279,40.557h-6.112V18.882l-0.462-4.161h5.034l0.616,3.75c1.13-2.928,3.647-4.52,6.215-4.52
		c1.541,0,2.979,0.36,4.109,1.027l-1.079,5.188c-1.13-0.616-2.312-1.027-3.647-1.027c-2.773,0-4.571,2.208-4.674,5.188V40.557z"/>
</g>
<text transform="matrix(1 0 0 1 129.9058 68.3579)" display="none" fill="#15222A" font-family="'Bree-Regular'" font-size="100">f</text>
<text transform="matrix(1 0 0 1 158.7441 68.3579)" display="none" fill="#15222A" font-family="'Bree-Regular'" font-size="100">i</text>
<g>
	<path fill="#FFFFFF" d="M118.314,21.091c0,7.91-9.811,8.937-14.536,8.989c0.206,3.338,2.106,6.574,6.472,6.574
		c3.03,0,5.239-1.387,6.471-2.26l1.901,4.058c-0.822,0.719-4.212,2.876-9.04,2.876c-8.475,0-11.968-5.444-11.968-13.149
		c0-7.55,4.366-14.228,12.533-14.228C115.181,13.951,118.314,16.52,118.314,21.091z M109.788,18.317
		c-4.109,0-6.061,4.006-6.215,7.807c2.774,0.051,9.297-0.822,9.297-4.777C112.87,19.447,111.637,18.317,109.788,18.317z"/>
</g>
<g>
	<path fill="#FFFFFF" d="M127.79,4.837v27.223c0,3.184,0.667,4.366,2.773,4.366c1.027,0,2.157-0.36,3.236-0.822l1.335,4.109
		c-1.387,0.873-3.904,1.541-6.112,1.541c-6.934,0-7.345-4.058-7.345-7.91V4.837H127.79z"/>
</g>
<g>
	<path fill="#FFFFFF" d="M152.443,14.494V4.786h6.061V35.45l0.462,5.034h-5.239l-0.411-2.774l-0.206-0.051
		c-1.592,2.363-4.16,3.596-6.985,3.596c-8.012,0-10.119-6.267-10.119-12.687c0-8.783,4.521-14.69,12.431-14.69
		C150.08,13.877,151.262,14.134,152.443,14.494z M152.443,19.168c-0.924-0.411-2.26-0.822-3.853-0.822
		c-4.879,0-6.523,4.623-6.523,9.656c0,4.674,1.13,8.732,5.291,8.732c3.133,0,5.085-2.26,5.085-4.263V19.168z"/>
</g>
<g>
	<path fill="#FFFFFF" d="M79.646,51.343h-6.113v-38.06c0-4.109,1.034-10.021,8.994-9.886c2.033,0.034,5.157,0.449,5.157,0.449
		l-1.98,4.835c0,0-1.357-0.234-2.615-0.178c-2.592,0.116-3.442,1.492-3.442,4.317v1.83h5.128v4.863h-5.128V51.343z"/>
</g>
<g>
	<path fill="#FFFFFF" d="M88.396,40.483V14.648h6.113v25.835H88.396z"/>
</g>
<circle fill="#FFFFFF" cx="91.452" cy="8.568" r="3.186"/>
</svg>
