<?xml version="1.0" encoding="utf-8"?>
<!-- Generator: Adobe Illustrator 15.1.0, SVG Export Plug-In . SVG Version: 6.00 Build 0)  -->
<!DOCTYPE svg PUBLIC "-//W3C//DTD SVG 1.1//EN" "http://www.w3.org/Graphics/SVG/1.1/DTD/svg11.dtd">
<svg version="1.1" id="Layer_1" xmlns="http://www.w3.org/2000/svg" xmlns:xlink="http://www.w3.org/1999/xlink" x="0px" y="0px"
	 width="150px" height="21.33px" viewBox="0 0 150 21.33" enable-background="new 0 0 150 21.33" xml:space="preserve">
<g>
	<path fill="#FFFFFF" d="M0,20.953V0h11.026c3.989,0,6.031,2.544,6.031,5.34c0,2.607-1.633,4.398-3.613,4.806
		c2.262,0.346,4.021,2.513,4.021,5.121c0,3.173-2.073,5.686-6.094,5.686H0z M12.502,6.126c0-1.288-0.942-2.199-2.45-2.199H4.46
		v4.398h5.592C11.56,8.325,12.502,7.477,12.502,6.126z M12.911,14.639c0-1.319-0.943-2.387-2.67-2.387H4.46v4.775h5.78
		C11.906,17.026,12.911,16.146,12.911,14.639z"/>
	<path fill="#FFFFFF" d="M21.613,12.565V0h4.523v12.44c0,2.921,1.696,4.932,4.932,4.932c3.235,0,4.9-2.01,4.9-4.932V0h4.555v12.565
		c0,5.183-3.079,8.765-9.456,8.765C24.691,21.33,21.613,17.749,21.613,12.565z"/>
	<path fill="#FFFFFF" d="M57.298,20.953l-4.115-7.445h-3.267v7.445h-4.461V0h9.801c4.366,0,7.068,2.859,7.068,6.754
		c0,3.676-2.356,5.686-4.618,6.22l4.743,7.979H57.298z M57.738,6.723c0-1.728-1.351-2.796-3.11-2.796h-4.712v5.654h4.712
		C56.388,9.581,57.738,8.513,57.738,6.723z"/>
	<path fill="#FFFFFF" d="M66.44,20.953V0h14.827v3.927H70.901v4.398h10.146v3.927H70.901v8.702H66.44z"/>
	<path fill="#FFFFFF" d="M85.163,20.953V0h4.461v20.953H85.163z"/>
	<path fill="#FFFFFF" d="M94.555,20.953V0h14.827v3.927H99.016v4.398h10.147v3.927H99.016v4.775h10.367v3.927H94.555z"/>
	<path fill="#FFFFFF" d="M113.466,20.953V0h4.492v17.026h8.858v3.927H113.466z"/>
	<path fill="#FFFFFF" d="M130.618,20.953V0h8.261C145.445,0,150,4.178,150,10.461c0,6.346-4.555,10.492-11.089,10.492H130.618z
		 M145.445,10.461c0-3.675-2.262-6.534-6.534-6.534h-3.833v13.1h3.801C143.026,17.026,145.445,14.042,145.445,10.461z"/>
</g>
</svg>
