<?xml version="1.0" encoding="utf-8"?>
<!-- Generator: Adobe Illustrator 15.1.0, SVG Export Plug-In . SVG Version: 6.00 Build 0)  -->
<!DOCTYPE svg PUBLIC "-//W3C//DTD SVG 1.1//EN" "http://www.w3.org/Graphics/SVG/1.1/DTD/svg11.dtd">
<svg version="1.1" id="Layer_1" xmlns="http://www.w3.org/2000/svg" xmlns:xlink="http://www.w3.org/1999/xlink" x="0px" y="0px"
	 width="84.388px" height="12px" viewBox="32.806 4.665 84.388 12" enable-background="new 32.806 4.665 84.388 12"
	 xml:space="preserve">
<g>
	<path fill="#FFFFFF" d="M32.806,16.453V4.665h6.203c2.244,0,3.393,1.431,3.393,3.004c0,1.467-0.919,2.475-2.033,2.704
		c1.273,0.195,2.262,1.414,2.262,2.881c0,1.785-1.166,3.199-3.428,3.199H32.806z M39.839,8.111c0-0.725-0.53-1.237-1.378-1.237
		h-3.146v2.475h3.146C39.31,9.349,39.839,8.872,39.839,8.111z M40.07,12.901c0-0.743-0.531-1.344-1.502-1.344h-3.252v2.687h3.252
		C39.504,14.244,40.07,13.748,40.07,12.901z"/>
	<path fill="#FFFFFF" d="M44.965,11.734V4.665h2.544v6.999c0,1.643,0.954,2.774,2.774,2.774s2.757-1.131,2.757-2.774V4.665h2.562
		v7.069c0,2.915-1.732,4.931-5.32,4.931C46.697,16.665,44.965,14.65,44.965,11.734z"/>
	<path fill="#FFFFFF" d="M65.041,16.453l-2.315-4.188h-1.838v4.188h-2.51V4.665h5.514c2.457,0,3.977,1.608,3.977,3.8
		c0,2.068-1.326,3.199-2.598,3.499l2.668,4.489H65.041z M65.289,8.447c0-0.972-0.76-1.573-1.75-1.573h-2.651v3.181h2.651
		C64.529,10.055,65.289,9.455,65.289,8.447z"/>
	<path fill="#FFFFFF" d="M70.184,16.453V4.665h8.342v2.209h-5.833v2.475h5.708v2.209h-5.708v4.896H70.184L70.184,16.453z"/>
	<path fill="#FFFFFF" d="M80.718,16.453V4.665h2.51v11.788H80.718z"/>
	<path fill="#FFFFFF" d="M86.001,16.453V4.665h8.342v2.209h-5.832v2.475h5.709v2.209h-5.709v2.687h5.833v2.209H86.001L86.001,16.453
		z"/>
	<path fill="#FFFFFF" d="M96.641,16.453V4.665h2.527v9.579h4.983v2.209H96.641z"/>
	<path fill="#FFFFFF" d="M106.29,16.453V4.665h4.647c3.694,0,6.257,2.35,6.257,5.885c0,3.571-2.562,5.903-6.239,5.903H106.29z
		 M114.632,10.55c0-2.067-1.272-3.676-3.677-3.676h-2.156v7.37h2.139C113.271,14.244,114.632,12.564,114.632,10.55z"/>
</g>
</svg>
